<?xml version="1.0" encoding="iso-8859-1"?>
<!-- Generator: Adobe Illustrator 19.0.0, SVG Export Plug-In . SVG Version: 6.00 Build 0)  -->
<svg xmlns="http://www.w3.org/2000/svg" xmlns:xlink="http://www.w3.org/1999/xlink" version="1.1" id="Layer_1" x="0px" y="0px" viewBox="0 0 512 512" style="enable-background:new 0 0 512 512;" xml:space="preserve">
<circle style="fill:#7FC8F1;" cx="255.996" cy="255.997" r="255.996"/>
<path style="fill:#009AE5;" d="M512,256c0-15.606-1.401-30.885-4.076-45.72l-98.98-98.98  c-38.376-40.546-92.697-65.844-152.93-65.844C139.733,45.456,45.47,139.72,45.47,256c0,60.233,25.299,114.554,65.844,152.93  l99.001,99.001c14.825,2.671,30.092,4.069,45.685,4.069C397.385,512,512,397.385,512,256z"/>
<circle style="fill:#3A4DE3;" cx="256.017" cy="255.997" r="210.544"/>
<path style="fill:#1C2EDE;" d="M256.014,45.456v421.088c116.28,0,210.544-94.264,210.544-210.544S372.294,45.456,256.014,45.456z"/>
<path style="fill:#FFFFFF;" d="M305.909,332.239h-23.428V304.79c27.892-9.647,50.051-34.124,59.285-65.31  c10.96-0.006,19.842-10.054,19.842-22.447c0-10.825-6.777-19.857-15.794-21.975c-5.238-50.837-43.433-90.3-89.799-90.3  s-84.56,39.463-89.799,90.3c-9.017,2.118-15.794,11.15-15.794,21.975c0,12.393,8.883,22.441,19.842,22.447  c9.234,31.188,31.392,55.663,59.285,65.31v27.449h-23.428c-46.742,0-85.227,37.126-87.44,83.345  c36.869,31.757,84.858,50.961,137.335,50.961s100.467-19.204,137.335-50.961C391.136,369.365,352.651,332.239,305.909,332.239z"/>
<path style="fill:#E1E1E3;" d="M305.909,332.239h-23.428V304.79c27.892-9.647,50.051-34.124,59.285-65.31  c10.96-0.006,19.842-10.054,19.842-22.447c0-10.825-6.777-19.857-15.794-21.975c-5.238-50.837-43.433-90.3-89.799-90.3v361.788  c52.477,0,100.467-19.204,137.335-50.961C391.136,369.365,352.651,332.239,305.909,332.239z"/>
<path style="fill:#00A6FF;" d="M309.08,332.317c-15.135,16.73-33.4,26.507-53.065,26.507s-37.93-9.777-53.065-26.507  c-45.298,1.636-82.107,38.099-84.27,83.266c36.869,31.757,84.858,50.961,137.335,50.961s100.467-19.204,137.335-50.961  C391.186,370.416,354.377,333.953,309.08,332.317z"/>
<path style="fill:#0088FF;" d="M309.08,332.317c-15.135,16.731-33.4,26.507-53.065,26.507v107.72  c52.477,0,100.467-19.204,137.335-50.961C391.186,370.416,354.377,333.953,309.08,332.317z"/>
<g>
</g>
<g>
</g>
<g>
</g>
<g>
</g>
<g>
</g>
<g>
</g>
<g>
</g>
<g>
</g>
<g>
</g>
<g>
</g>
<g>
</g>
<g>
</g>
<g>
</g>
<g>
</g>
<g>
</g>
</svg>
